<?xml version="1.0" standalone="no"?>
<!DOCTYPE svg PUBLIC "-//W3C//DTD SVG 20010904//EN"
 "http://www.w3.org/TR/2001/REC-SVG-20010904/DTD/svg10.dtd">
<svg version="1.0" xmlns="http://www.w3.org/2000/svg"
 width="1227.000000pt" height="806.000000pt" viewBox="0 0 1227.000000 806.000000"
 preserveAspectRatio="xMidYMid meet">

<g transform="translate(0.000000,806.000000) scale(0.100000,-0.100000)"
fill="#000000" stroke="none">
<path d="M7420 6181 c-145 -37 -235 -89 -356 -203 -94 -89 -133 -147 -172
-260 -42 -119 -62 -231 -62 -352 0 -128 17 -223 90 -516 89 -355 110 -467 117
-620 10 -237 -31 -418 -143 -627 -29 -56 -54 -104 -54 -107 0 -3 24 11 53 30
28 19 144 90 255 157 112 67 218 134 235 148 l32 27 0 193 c-1 243 -8 270
-164 663 -87 219 -150 413 -186 572 -23 102 -26 133 -21 214 13 217 96 389
226 472 70 45 193 80 280 81 145 2 228 -52 291 -188 27 -58 34 -85 37 -157 4
-79 2 -93 -21 -140 -36 -74 -125 -163 -191 -194 -100 -46 -224 -26 -297 47
-49 49 -85 157 -75 226 8 60 51 155 85 187 33 31 104 47 163 35 24 -4 46 -8
50 -9 3 0 21 -12 39 -27 114 -96 77 -293 -55 -293 -48 0 -80 19 -102 62 -19
37 -12 73 20 94 31 19 63 5 72 -32 9 -37 29 -23 32 23 3 34 -1 44 -24 62 -29
23 -74 27 -105 11 -76 -41 -56 -232 31 -283 68 -41 193 -2 246 75 37 53 45
155 19 244 -34 116 -143 183 -277 171 -108 -10 -222 -105 -254 -212 -24 -84
-16 -223 16 -288 34 -68 93 -122 179 -165 66 -33 85 -37 162 -40 126 -5 177
13 256 94 43 43 74 89 105 150 l43 87 0 131 c0 112 -3 140 -23 191 -28 74
-103 176 -156 211 -100 68 -259 90 -396 55z"/>
<path d="M4400 6174 c-84 -23 -150 -65 -204 -130 -57 -69 -91 -138 -107 -214
-14 -68 -7 -211 13 -268 41 -114 146 -240 233 -282 75 -35 193 -39 286 -10 82
27 172 82 213 131 55 65 71 114 71 224 0 90 -3 106 -28 157 -19 38 -45 71 -80
99 -78 63 -120 79 -208 79 -142 0 -241 -74 -268 -201 -36 -168 42 -288 197
-305 86 -9 149 45 171 145 19 89 -22 162 -92 164 -65 2 -108 -48 -93 -108 8
-33 22 -32 34 5 18 50 82 54 103 6 24 -51 -23 -120 -89 -132 -137 -26 -204
159 -98 274 31 34 67 51 128 58 115 13 187 -38 229 -164 25 -75 22 -133 -11
-210 -28 -66 -74 -108 -143 -132 -72 -25 -128 -25 -202 0 -105 36 -227 166
-243 260 -20 115 24 253 110 346 47 51 134 84 223 84 63 0 226 -40 285 -70
139 -71 236 -244 259 -461 8 -86 7 -108 -14 -207 -31 -147 -116 -398 -209
-620 -160 -383 -170 -419 -171 -655 l0 -179 31 -28 c18 -15 94 -63 170 -105
77 -43 199 -113 272 -156 72 -44 134 -79 137 -79 2 0 -12 28 -32 61 -168 289
-211 517 -157 844 18 104 48 233 109 460 79 293 90 355 89 510 -1 119 -5 155
-28 240 -53 194 -129 308 -285 425 -179 134 -421 192 -601 144z"/>
<path d="M877 3123 c-14 -14 -6 -22 26 -25 l32 -3 -2 -75 c-3 -91 -18 -188
-40 -241 -13 -33 -20 -39 -44 -39 -21 0 -29 -5 -29 -17 0 -10 -3 -35 -6 -55
-9 -50 8 -49 30 2 l17 40 159 0 159 0 20 -26 c12 -15 21 -33 21 -40 0 -8 5
-14 11 -14 6 0 9 20 7 52 -3 50 -5 53 -33 58 l-30 5 -3 173 -2 172 30 6 c16 4
30 13 30 20 0 11 -33 14 -173 14 -96 0 -177 -3 -180 -7z m241 -205 l2 -178
-104 0 -104 0 19 59 c10 33 23 108 29 168 7 59 13 114 16 121 3 9 23 12 71 10
l68 -3 3 -177z"/>
<path d="M1510 3121 c0 -5 16 -12 35 -15 l35 -7 -2 -177 -3 -177 -35 -12 c-29
-10 -4 -12 163 -12 l197 -1 -1 78 c0 62 -2 72 -10 52 -45 -110 -61 -121 -174
-118 l-80 3 -3 93 -3 92 51 0 c45 0 52 -3 60 -26 6 -14 10 -36 10 -50 0 -13 5
-24 10 -24 6 0 10 43 10 110 0 67 -4 110 -10 110 -5 0 -10 -14 -10 -31 0 -54
-15 -69 -71 -69 l-50 0 3 83 3 82 83 3 c83 3 83 3 118 -32 19 -19 34 -43 34
-54 0 -12 5 -24 10 -27 7 -5 10 16 8 62 l-3 68 -187 3 c-109 1 -188 -1 -188
-7z"/>
<path d="M2156 3123 c-3 -4 8 -12 26 -17 l33 -11 0 -175 0 -175 -35 -12 c-32
-11 -27 -12 58 -12 60 -1 91 3 87 9 -3 6 -17 10 -31 10 l-24 0 2 183 3 182
101 3 c78 2 104 -1 113 -11 8 -10 11 -65 9 -183 l-3 -168 -40 -12 c-38 -12
-36 -12 53 -13 51 -1 92 3 92 8 0 5 -12 11 -27 13 l-28 3 0 174 0 175 33 8
c17 5 32 13 32 18 0 11 -443 14 -454 3z"/>
<path d="M3546 3122 c-3 -5 9 -13 29 -16 l35 -7 -2 -182 -3 -182 -27 -3 c-16
-2 -28 -8 -28 -13 0 -12 187 -12 195 1 4 6 -6 10 -22 10 -55 0 -64 16 -61 105
l3 80 95 5 c52 3 105 11 117 18 47 26 67 87 43 133 -22 40 -67 52 -221 57 -94
3 -148 1 -153 -6z m274 -30 c37 -18 48 -44 42 -99 -5 -44 -24 -53 -119 -56
l-78 -2 -3 74 c-2 41 -1 80 2 88 8 20 113 17 156 -5z"/>
<path d="M4230 3058 l0 -73 20 42 c21 47 70 83 113 83 l27 0 -2 -182 -3 -181
-40 -13 c-38 -11 -33 -12 65 -12 96 0 102 1 70 12 l-35 13 -3 183 -2 183 41
-6 c49 -6 76 -28 100 -82 l18 -40 0 73 1 72 -185 0 -185 0 0 -72z"/>
<path d="M5530 3122 c0 -4 14 -13 30 -19 l30 -11 0 -164 c0 -89 -4 -168 -8
-173 -4 -6 -18 -16 -32 -22 -22 -10 -16 -12 45 -12 68 0 69 0 43 15 l-28 15 0
157 c0 86 4 150 9 142 4 -8 36 -88 71 -178 35 -89 64 -161 65 -160 2 2 33 77
69 168 37 90 69 166 71 169 3 2 5 -66 5 -151 l0 -155 -32 -11 c-28 -8 -20 -10
57 -10 72 0 84 2 63 10 l-28 10 0 179 0 179 25 6 c45 11 26 25 -31 22 l-56 -3
-61 -152 c-33 -84 -64 -153 -67 -153 -4 0 -20 35 -35 78 -16 42 -41 112 -57
155 l-30 77 -59 0 c-32 0 -59 -4 -59 -8z"/>
<path d="M6250 3121 c0 -5 16 -12 35 -15 l35 -7 -2 -177 -3 -177 -35 -12 c-29
-10 -4 -12 163 -12 l197 -1 -1 78 0 77 -20 -51 c-31 -80 -45 -89 -153 -89
l-91 0 -3 93 -3 92 50 0 c55 0 71 -15 71 -64 0 -14 5 -28 10 -31 6 -4 10 33
10 104 0 67 -4 111 -10 111 -5 0 -10 -14 -10 -31 0 -54 -15 -69 -71 -69 l-50
0 3 83 3 82 83 3 c83 3 83 3 118 -32 19 -19 34 -43 34 -54 0 -12 5 -24 10 -27
7 -5 10 16 8 62 l-3 68 -187 3 c-109 1 -188 -1 -188 -7z"/>
<path d="M6900 3122 c0 -4 14 -13 30 -19 l30 -11 0 -171 0 -171 -32 -14 c-32
-14 -29 -14 62 -14 88 0 93 0 60 12 l-35 13 -3 86 -3 87 111 0 110 0 0 -89 0
-88 -32 -11 c-28 -8 -18 -10 62 -10 88 0 92 0 60 12 l-35 13 0 173 0 173 33
11 c49 17 28 26 -59 26 -80 0 -112 -13 -59 -25 l30 -7 0 -79 0 -79 -110 0
-110 0 0 79 0 79 30 7 c17 4 28 11 24 16 -6 11 -164 12 -164 1z"/>
<path d="M7617 3123 c-11 -10 -8 -133 3 -133 6 0 10 10 10 21 0 12 18 39 39
61 33 32 46 39 73 36 l33 -3 3 -171 c3 -185 3 -182 -53 -202 -25 -9 -11 -10
75 -10 86 0 100 1 75 10 -56 20 -56 17 -53 202 l3 171 27 3 c44 5 87 -24 111
-76 l22 -47 3 59 c2 32 1 65 -2 72 -4 11 -42 14 -184 14 -98 0 -182 -3 -185
-7z"/>
<path d="M8590 3122 c0 -4 14 -13 30 -19 l30 -11 0 -176 0 -175 -32 -10 c-27
-8 -17 -9 55 -10 48 -1 87 3 87 8 0 5 -12 11 -27 13 l-28 3 -3 174 c-2 133 1
176 10 183 7 4 54 8 103 8 50 0 96 -4 103 -8 9 -7 12 -50 10 -182 l-3 -173
-35 -13 c-33 -12 -29 -13 58 -13 60 -1 91 3 87 9 -3 6 -17 10 -31 10 l-24 0 0
179 0 179 35 6 c20 4 33 11 30 17 -7 11 -455 13 -455 1z"/>
<path d="M9300 3123 c0 -6 15 -14 33 -19 l32 -10 3 -174 c3 -185 1 -190 -46
-190 -13 0 -20 -4 -17 -10 3 -6 48 -10 100 -10 52 0 97 4 100 10 4 6 -6 10
-24 10 -58 0 -61 4 -61 101 l0 89 85 0 c51 0 99 6 120 14 33 14 65 59 65 91 0
32 -30 73 -62 85 -41 16 -328 27 -328 13z m269 -24 c38 -13 51 -35 51 -87 0
-56 -20 -70 -118 -78 l-82 -7 0 92 0 91 59 0 c32 0 72 -5 90 -11z"/>
<path d="M10666 3121 c-3 -5 8 -11 24 -15 l30 -5 0 -175 c0 -181 -2 -188 -45
-199 -11 -3 51 -5 137 -4 l158 2 31 32 c25 25 32 39 32 72 0 45 -13 65 -55 87
l-29 15 31 25 c24 21 30 34 30 64 0 56 -31 88 -99 100 -66 12 -238 13 -245 1z
m233 -20 c40 -11 65 -53 57 -95 -9 -48 -38 -65 -120 -73 l-66 -6 0 92 0 91 53
-1 c28 -1 63 -4 76 -8z m39 -202 c30 -19 47 -65 36 -96 -15 -43 -53 -63 -132
-70 l-72 -6 0 98 0 98 74 -6 c40 -3 83 -11 94 -18z"/>
<path d="M2991 2977 c-83 -219 -97 -247 -120 -247 -12 0 -21 -4 -21 -10 0 -6
27 -10 60 -10 33 0 60 4 60 10 0 6 -11 10 -24 10 -27 0 -26 4 4 88 l12 32 81
0 82 0 22 -56 c22 -55 22 -56 3 -61 -41 -11 -17 -23 45 -23 67 0 81 8 44 25
-15 7 -45 65 -102 198 -45 103 -84 187 -87 187 -3 0 -29 -64 -59 -143z m116
-103 c-2 -3 -34 -4 -69 -2 l-64 3 34 89 35 89 35 -87 c19 -48 32 -89 29 -92z"/>
<path d="M5066 3088 c-8 -18 -40 -100 -71 -183 -63 -165 -69 -175 -96 -175
-11 0 -19 -4 -19 -10 0 -6 29 -10 66 -10 41 0 63 4 59 10 -3 6 -15 10 -26 10
-23 0 -24 12 -2 73 l17 47 83 0 c46 0 83 -2 83 -5 0 -2 9 -27 20 -56 l20 -51
-20 -5 c-43 -11 -17 -23 50 -23 74 0 85 5 47 19 -19 7 -42 50 -107 200 -46
105 -85 191 -87 191 -2 0 -10 -15 -17 -32z m47 -130 l35 -88 -69 0 c-38 0 -69
4 -69 9 0 12 62 172 66 169 1 -2 18 -42 37 -90z"/>
<path d="M10146 3088 c-8 -18 -40 -100 -71 -183 -63 -165 -69 -175 -96 -175
-11 0 -19 -4 -19 -10 0 -6 29 -10 66 -10 41 0 63 4 59 10 -3 6 -15 10 -26 10
-24 0 -24 23 1 78 l19 42 78 0 78 0 22 -56 c22 -55 22 -56 3 -61 -43 -11 -17
-23 50 -23 74 0 85 5 47 19 -19 7 -42 50 -107 200 -46 105 -85 191 -87 191 -2
0 -10 -15 -17 -32z m47 -130 l35 -88 -69 0 c-38 0 -69 4 -69 9 0 12 62 172 66
169 1 -2 18 -42 37 -90z"/>
<path d="M11475 3023 c-91 -235 -110 -278 -133 -288 -37 -17 -25 -25 38 -25
33 0 60 4 60 10 0 6 -12 10 -26 10 -29 0 -29 12 1 83 l15 37 80 0 80 0 15 -37
c26 -63 29 -83 11 -83 -9 0 -16 -4 -16 -10 0 -6 28 -10 65 -10 37 0 65 4 65
10 0 6 -9 10 -19 10 -19 0 -28 19 -167 338 -13 28 -25 52 -27 52 -3 0 -22 -44
-42 -97z m70 -60 c17 -42 32 -80 33 -85 2 -4 -29 -8 -68 -8 -65 0 -71 2 -65
18 4 9 18 47 32 85 14 37 28 67 32 67 3 0 20 -35 36 -77z"/>
<path d="M3880 2441 c0 -5 10 -11 23 -13 22 -3 22 -5 25 -185 2 -176 2 -183
-17 -183 -11 0 -23 -4 -26 -10 -4 -6 24 -10 76 -10 50 0 79 4 73 9 -5 5 -18
11 -29 13 -18 3 -20 12 -23 92 l-3 89 52 -5 c65 -7 84 -27 93 -101 8 -72 14
-87 41 -97 50 -19 87 17 70 69 -8 28 -23 27 -27 -1 -5 -39 -23 -21 -28 30 -7
68 -31 100 -80 108 -22 4 -40 9 -40 11 0 3 11 14 24 24 15 11 27 34 31 57 9
57 20 70 45 55 29 -18 48 -16 55 7 9 28 -2 40 -34 40 -41 0 -80 -35 -87 -78
-7 -46 -20 -64 -61 -85 -52 -27 -54 -24 -51 66 3 81 3 82 31 85 15 2 25 8 22
13 -8 12 -155 12 -155 0z"/>
<path d="M4694 2439 c-17 -5 -49 -29 -72 -52 -77 -84 -76 -210 2 -295 33 -37
70 -52 126 -52 115 0 190 79 190 200 0 145 -114 237 -246 199z m122 -28 c38
-23 64 -76 71 -144 7 -70 -10 -129 -51 -172 -29 -31 -39 -35 -83 -35 -41 0
-54 5 -76 28 -38 39 -57 93 -57 159 0 137 101 222 196 164z"/>
<path d="M5205 2440 c-3 -6 4 -10 17 -10 44 0 48 -14 48 -185 0 -166 -4 -185
-41 -185 -10 0 -21 -4 -24 -10 -4 -6 29 -10 91 -10 60 0 94 4 89 9 -6 5 -21
11 -35 13 -24 3 -25 6 -28 91 l-3 87 111 0 111 0 -3 -87 c-3 -88 -3 -88 -30
-91 -16 -2 -28 -8 -28 -13 0 -5 38 -9 85 -9 47 0 85 4 85 9 0 5 -12 11 -27 13
l-28 3 -3 178 -2 177 30 6 c57 12 30 24 -55 24 -84 0 -112 -12 -55 -23 l30 -6
0 -81 0 -80 -110 0 -111 0 3 83 c3 81 3 82 31 85 15 2 25 8 22 13 -8 12 -162
12 -170 -1z"/>
<path d="M6057 2436 c-21 -8 -48 -22 -59 -33 -83 -73 -75 -272 13 -336 30 -22
94 -32 142 -23 40 8 103 61 112 96 6 21 1 18 -29 -17 -64 -73 -169 -79 -216
-13 -43 61 -43 186 1 256 58 94 179 74 223 -36 9 -22 18 -40 21 -40 3 0 5 37
4 83 0 69 -2 78 -12 57 -6 -14 -12 -26 -13 -28 -1 -1 -23 9 -49 23 -54 28 -83
30 -138 11z"/>
<path d="M6711 2282 c-78 -204 -86 -221 -114 -232 -16 -6 -4 -8 43 -8 36 1 53
3 38 5 -34 5 -34 15 -7 82 l22 52 76 -3 76 -3 17 -36 c29 -62 32 -87 11 -92
-10 -3 14 -5 52 -4 39 0 60 2 48 4 -24 5 -24 4 -123 233 -39 91 -73 166 -74
167 -1 1 -30 -73 -65 -165z m98 -5 c17 -43 31 -80 31 -82 0 -3 -31 -5 -70 -5
-38 0 -70 3 -70 6 0 21 65 173 71 167 4 -5 21 -43 38 -86z"/>
<path d="M7350 2440 c0 -5 11 -10 24 -10 13 0 26 -6 29 -13 11 -30 -12 -246
-31 -290 -29 -66 -90 -95 -77 -37 8 34 -15 51 -40 30 -35 -29 -2 -80 52 -80
78 0 122 123 123 348 l0 42 75 0 75 0 0 -180 0 -179 -32 -10 c-27 -7 -17 -9
52 -9 47 0 76 3 65 5 -41 10 -43 19 -44 179 -2 161 5 194 39 194 11 0 20 5 20
10 0 6 -62 10 -165 10 -103 0 -165 -4 -165 -10z"/>
<path d="M7956 2428 c-10 -38 -7 -120 4 -113 6 3 10 16 10 27 0 11 16 36 36
54 28 27 44 34 75 34 l39 0 -2 -176 c-3 -189 0 -178 -58 -202 -19 -8 -2 -11
80 -11 82 0 99 3 80 11 -58 24 -55 13 -58 202 l-2 176 41 0 c33 0 47 -6 75
-34 19 -19 34 -43 34 -54 0 -12 5 -24 12 -28 8 -5 9 6 5 41 -4 26 -7 58 -7 71
l0 24 -179 0 c-177 0 -179 0 -185 -22z"/>
</g>
</svg>
